<!DOCTYPE svg PUBLIC "-//W3C//DTD SVG 1.1//EN" "http://www.w3.org/Graphics/SVG/1.1/DTD/svg11.dtd">
<!-- Uploaded to: SVG Repo, www.svgrepo.com, Transformed by: SVG Repo Mixer Tools -->
<svg width="800px" height="800px" viewBox="-2.4 -2.4 28.80 28.80" fill="none" xmlns="http://www.w3.org/2000/svg" stroke="#000" transform="matrix(1, 0, 0, 1, 0, 0)rotate(0)">
<g id="SVGRepo_bgCarrier" stroke-width="0">
<path transform="translate(-2.4, -2.4), scale(0.8999999999999999)" d="M16,28.524929430867942C19.226615550799437,28.398233249392067,22.599357455637367,28.85974731971919,25.280251165340562,27.05977266647122C28.15742473380413,25.128014060195554,30.474165714611644,22.05762959575124,30.774573742072203,18.60515597919416C31.063303839283726,15.286892311757311,28.755621356857848,12.458486918095845,26.784358441790598,9.773647750594789C25.050934001987642,7.412742062005917,22.92781971822612,5.5031105897886725,20.26275657411456,4.288172567988509C17.362877807229854,2.966187766133577,14.191538434269432,1.7294019909202523,11.137600911521039,2.640668300027315C7.982506457563304,3.5821188884973614,5.499308904553543,6.146923261631649,4.078824463853154,9.11730609514883C2.735917816715702,11.925465577491632,3.3803815727397355,15.07161926599268,3.71287597810341,18.16655148037147C4.077609441777735,21.561572052681385,3.4767346785821234,25.61255379254676,6.087381019019425,27.813399282601146C8.698904615928349,30.014984323593282,12.586926390662214,28.658947068417618,16,28.524929430867942" fill="#000" strokewidth="0"/>
</g>
<g id="SVGRepo_tracerCarrier" stroke-linecap="round" stroke-linejoin="round"/>
<g id="SVGRepo_iconCarrier"> <path d="M6.29977 5H21L19 12H7.37671M20 16H8L6 3H3M9 20C9 20.5523 8.55228 21 8 21C7.44772 21 7 20.5523 7 20C7 19.4477 7.44772 19 8 19C8.55228 19 9 19.4477 9 20ZM20 20C20 20.5523 19.5523 21 19 21C18.4477 21 18 20.5523 18 20C18 19.4477 18.4477 19 19 19C19.5523 19 20 19.4477 20 20Z" stroke="#e600de" stroke-width="2" stroke-linecap="round" stroke-linejoin="round"/> </g>
</svg>